# xmcd
#
# Track frame offsets: 
#        150
#        16768
#        57998
#        85443
#        104233
#        118088
#        143738
#        170630
#        181223
#
# Disc length: 2738 seconds
#
# Revision: 2
# Processed by: cddbd v1.4PL0 Copyright (c) Steve Scherf et al.
# Submitted via: ExactAudioCopy v0.90b4
#
DISCID=7c0ab009
DTITLE=Butterfield Blues Band, The - The Resurrection of Pigboy Crabsh
DTITLE=aw
DYEAR=1989
DGENRE=Blues
TTITLE0=One More Heartache
TTITLE1=Driftin' and Driftin'
TTITLE2=Pity the Fool
TTITLE3=Born Under a Bad Sign
TTITLE4=Run Out of Time
TTITLE5=Double Trouble
TTITLE6=Drivin' Wheel
TTITLE7=Droppin' Out
TTITLE8=Tollin' Bells
EXTD=
EXTT0=
EXTT1=
EXTT2=
EXTT3=
EXTT4=
EXTT5=
EXTT6=
EXTT7=
EXTT8=
PLAYORDER=
